<svg width="18" height="18" viewBox="0 0 18 18" fill="none" xmlns="http://www.w3.org/2000/svg">
<path d="M16.8217 6.72887H15.7297C15.4413 6.72373 15.1661 6.60679 14.9622 6.40271C14.7583 6.19862 14.6416 5.92334 14.6367 5.6349C14.6366 4.89478 14.4907 4.16194 14.2073 3.47821C13.924 2.79448 13.5087 2.17326 12.9853 1.65001C12.4619 1.12676 11.8405 0.711733 11.1567 0.428624C10.4728 0.145515 9.73995 -0.000131242 8.99983 8.87377e-08H5.63589C4.14134 6.5212e-08 2.70798 0.593643 1.65107 1.65036C0.594162 2.70708 0.000265181 4.14034 0 5.6349V12.3648C0.000265181 13.8593 0.594162 15.2926 1.65107 16.3493C2.70798 17.406 4.14134 17.9997 5.63589 17.9997H12.3648C13.8593 17.9994 15.2926 17.4055 16.3493 16.3486C17.406 15.2917 17.9997 13.8583 17.9997 12.3638V7.90585C18.0034 7.75019 17.9754 7.5954 17.9175 7.45087C17.8596 7.30633 17.773 7.17505 17.6628 7.065C17.5527 6.95495 17.4213 6.86841 17.2767 6.81063C17.1322 6.75285 16.9773 6.72504 16.8217 6.72887ZM5.5519 4.54192H9.58882C10.1778 4.54192 10.6818 5.04591 10.6818 5.6349C10.6818 6.22388 10.1778 6.72987 9.58982 6.72987H5.5499C5.26146 6.72473 4.98628 6.60779 4.78238 6.40371C4.57848 6.19962 4.4618 5.92434 4.45692 5.63589C4.45692 5.04691 4.96191 4.54292 5.5499 4.54292M12.4468 13.4587H5.63589C5.34728 13.4539 5.07185 13.337 4.86774 13.1329C4.66363 12.9288 4.5468 12.6534 4.54192 12.3648C4.54192 11.7758 5.04691 11.2718 5.63589 11.2718H12.4488C13.0368 11.2718 13.5417 11.7758 13.5417 12.3648C13.5417 12.9538 13.0368 13.4587 12.4488 13.4587" fill="currentColor"/>
</svg>
