<svg width="24" height="18" viewBox="0 0 24 18" fill="none" xmlns="http://www.w3.org/2000/svg">
<path d="M10.145 10.0645C9.62962 10.5689 9.22007 11.1711 8.94036 11.8358C8.66066 12.5005 8.51643 13.2143 8.51613 13.9355C8.51613 15.2686 8.99768 16.4903 9.79665 17.4333C8.87424 17.6818 7.92303 17.8073 6.96774 17.8065C5.14839 17.8065 3.4529 17.3853 2.18477 16.6142C0.915097 15.84 0 14.6555 0 13.1613C0 12.34 0.326266 11.5523 0.907024 10.9715C1.48778 10.3908 2.27546 10.0645 3.09677 10.0645H10.145ZM14.7097 10.0645C14.915 10.0645 15.1119 10.1461 15.2571 10.2913C15.4023 10.4365 15.4839 10.6334 15.4839 10.8387C15.4839 11.044 15.4023 11.241 15.2571 11.3861C15.1119 11.5313 14.915 11.6129 14.7097 11.6129H13.9355C13.3195 11.6129 12.7287 11.8576 12.2932 12.2932C11.8576 12.7287 11.6129 13.3195 11.6129 13.9355C11.6129 14.5515 11.8576 15.1422 12.2932 15.5778C12.7287 16.0134 13.3195 16.2581 13.9355 16.2581H14.7097C14.915 16.2581 15.1119 16.3396 15.2571 16.4848C15.4023 16.63 15.4839 16.8269 15.4839 17.0323C15.4839 17.2376 15.4023 17.4345 15.2571 17.5797C15.1119 17.7249 14.915 17.8065 14.7097 17.8065H13.9355C12.9088 17.8065 11.9242 17.3986 11.1983 16.6727C10.4723 15.9467 10.0645 14.9621 10.0645 13.9355C10.0645 12.9088 10.4723 11.9242 11.1983 11.1983C11.9242 10.4723 12.9088 10.0645 13.9355 10.0645H14.7097ZM20.129 10.0645C21.1557 10.0645 22.1403 10.4723 22.8662 11.1983C23.5922 11.9242 24 12.9088 24 13.9355C24 14.9621 23.5922 15.9467 22.8662 16.6727C22.1403 17.3986 21.1557 17.8065 20.129 17.8065H19.3548C19.1495 17.8065 18.9526 17.7249 18.8074 17.5797C18.6622 17.4345 18.5806 17.2376 18.5806 17.0323C18.5806 16.8269 18.6622 16.63 18.8074 16.4848C18.9526 16.3396 19.1495 16.2581 19.3548 16.2581H20.129C20.745 16.2581 21.3358 16.0134 21.7713 15.5778C22.2069 15.1422 22.4516 14.5515 22.4516 13.9355C22.4516 13.3195 22.2069 12.7287 21.7713 12.2932C21.3358 11.8576 20.745 11.6129 20.129 11.6129H19.3548C19.1495 11.6129 18.9526 11.5313 18.8074 11.3861C18.6622 11.241 18.5806 11.044 18.5806 10.8387C18.5806 10.6334 18.6622 10.4365 18.8074 10.2913C18.9526 10.1461 19.1495 10.0645 19.3548 10.0645H20.129ZM20.129 13.1613C20.3344 13.1613 20.5313 13.2429 20.6765 13.388C20.8217 13.5332 20.9032 13.7302 20.9032 13.9355C20.9032 14.1408 20.8217 14.3377 20.6765 14.4829C20.5313 14.6281 20.3344 14.7097 20.129 14.7097H13.9355C13.7302 14.7097 13.5332 14.6281 13.388 14.4829C13.2429 14.3377 13.1613 14.1408 13.1613 13.9355C13.1613 13.7302 13.2429 13.5332 13.388 13.388C13.5332 13.2429 13.7302 13.1613 13.9355 13.1613H20.129ZM6.96774 0C8.09705 0 9.18011 0.448616 9.97865 1.24716C10.7772 2.0457 11.2258 3.12876 11.2258 4.25806C11.2258 5.38737 10.7772 6.47043 9.97865 7.26897C9.18011 8.06751 8.09705 8.51613 6.96774 8.51613C5.83843 8.51613 4.75538 8.06751 3.95684 7.26897C3.15829 6.47043 2.70968 5.38737 2.70968 4.25806C2.70968 3.12876 3.15829 2.0457 3.95684 1.24716C4.75538 0.448616 5.83843 0 6.96774 0ZM17.0354 1.54374C17.4994 1.53396 17.9606 1.61691 18.3922 1.78771C18.8237 1.95852 19.2168 2.21374 19.5484 2.53843C19.88 2.86313 20.1434 3.25075 20.3233 3.67858C20.5032 4.10641 20.5958 4.56584 20.5958 5.02994C20.5958 5.49403 20.5032 5.95346 20.3233 6.38129C20.1434 6.80912 19.88 7.19674 19.5484 7.52144C19.2168 7.84613 18.8237 8.10136 18.3922 8.27216C17.9606 8.44296 17.4994 8.52591 17.0354 8.51613C16.1235 8.49691 15.2554 8.12117 14.6173 7.46948C13.9792 6.81778 13.6219 5.94201 13.6219 5.02994C13.6219 4.11786 13.9792 3.24209 14.6173 2.59039C15.2554 1.9387 16.1235 1.56296 17.0354 1.54374Z" fill="currentColor"/>
</svg>
