<svg width="232" height="284" viewBox="0 0 232 284" fill="none" xmlns="http://www.w3.org/2000/svg">
<path d="M169.725 -322.814C227.029 -301.968 257.985 -244.91 249.661 -190.87C241.425 -143.274 205.095 -101.582 151.434 -89.4378L151.533 161.616L172.535 162.245L172.781 202.128L183.748 202.835L183.721 242.425L165.989 244.047C166.229 253.126 165.57 270.516 166.562 279.284C166.675 280.313 166.848 283.278 164.644 283.284L82.0242 283.529C79.1343 283.535 77.6561 282.242 77.3632 280.242L77.8493 244.61C83.1096 243.065 87.977 244.305 93.1641 243.904L93.6235 203.907C93.6435 202.446 97.5587 202.535 98.724 201.835L98.7107 -89.5995C72.0429 -96.0071 60.6234 -104.511 40.9073 -118.877C18.2813 -141.37 2.45379 -168.599 0.309715 -199.296C-1.83436 -229.993 7.20805 -257.857 25.7456 -282.063C58.2197 -324.449 117.481 -341.809 169.718 -322.808L169.725 -322.814ZM202.126 -167.485L125.492 -286.925L49.1307 -167.318L202.126 -167.485Z" fill="#525252" fill-opacity="0.2"/>
</svg>
