<svg width="400" height="324" viewBox="0 0 400 324" fill="none" xmlns="http://www.w3.org/2000/svg">
<path fill-rule="evenodd" clip-rule="evenodd" d="M194.555 -106.991C150.237 -107.025 107.097 -92.7293 71.5758 -66.2374C36.0543 -39.7455 10.0569 -2.47885 -2.53493 39.9985C-15.1268 82.4759 -13.6375 127.885 1.71035 169.447C17.0582 211.009 45.4415 246.493 82.6225 270.602L28.1953 491.653C20.0802 524.494 37.7096 559.798 73.5279 566.679C152.188 581.785 236.921 581.785 315.582 566.679C351.4 559.798 369.029 524.494 360.914 491.653L306.487 270.574C343.636 246.449 371.987 210.964 387.314 169.414C402.64 127.864 404.12 82.4742 391.533 40.0146C378.945 -2.44503 352.965 -39.6993 317.467 -66.1919C281.968 -92.6844 238.854 -106.996 194.555 -106.991Z" fill="#525252" fill-opacity="0.2"/>
</svg>
