<svg width="386" height="128" viewBox="0 0 386 128" fill="none" xmlns="http://www.w3.org/2000/svg">
<path fill-rule="evenodd" clip-rule="evenodd" d="M121.071 -389.268C63.9215 -389.313 8.29085 -370.884 -37.5154 -336.735C-83.3217 -302.585 -116.846 -254.547 -133.084 -199.791C-149.322 -145.036 -147.401 -86.5008 -127.61 -32.9257C-107.818 20.6494 -71.2165 66.3907 -23.2703 97.4686L-93.4561 382.414C-103.921 424.749 -81.1872 470.256 -34.998 479.127C66.4377 498.599 175.704 498.599 277.14 479.127C323.329 470.256 346.062 424.749 335.598 382.414L265.412 97.4326C313.316 66.3334 349.877 20.5924 369.641 -32.9679C389.405 -86.5282 391.313 -145.038 375.081 -199.771C358.849 -254.503 325.346 -302.526 279.57 -336.676C233.794 -370.826 178.197 -389.274 121.071 -389.268Z" fill="#525252" fill-opacity="0.2"/>
</svg>
