<svg width="436" height="716" viewBox="-38.2874 -48.0356 435.5684 715.9606" fill="none" xmlns="http://www.w3.org/2000/svg">
<path fill-rule="evenodd" clip-rule="evenodd" d="M179.557 -47.9999C133.514 -48.0356 88.6947 -33.176 51.7904 -5.63985C14.8861 21.8963 -12.1234 60.6318 -25.2054 104.783C-38.2874 148.935 -36.7402 196.134 -20.7948 239.334C-4.84946 282.534 24.6388 319.417 63.2671 344.477L6.72118 574.24C-1.70983 608.376 16.6058 645.071 53.8186 652.224C135.541 667.925 223.573 667.925 305.295 652.224C342.508 645.071 360.824 608.376 352.393 574.24L295.847 344.448C334.442 319.371 363.897 282.488 379.82 239.3C395.743 196.112 397.281 148.933 384.203 104.8C371.125 60.667 344.134 21.9443 307.254 -5.59252C270.373 -33.1293 225.581 -48.0047 179.557 -47.9999Z" fill="#525252" fill-opacity="0.2"/>
</svg>
