<svg width="20" height="21" viewBox="0 0 20 21" fill="none" xmlns="http://www.w3.org/2000/svg">
<path d="M8.38077 0.595245C8.83279 0.210986 9.40673 0 10 0C10.5933 0 11.1672 0.210986 11.6192 0.595245L19.1192 6.96986C19.3953 7.20454 19.617 7.49642 19.7691 7.82529C19.9212 8.15415 20 8.51215 20 8.87448V18.8437C20 19.3537 19.7974 19.8429 19.4367 20.2035C19.0761 20.5642 18.587 20.7668 18.0769 20.7668H15C14.49 20.7668 14.0008 20.5642 13.6402 20.2035C13.2795 19.8429 13.0769 19.3537 13.0769 18.8437V13.8437C13.0769 13.4369 12.9158 13.0466 12.6288 12.7583C12.3417 12.47 11.9522 12.3071 11.5454 12.3052H8.45385C8.04715 12.3073 7.65782 12.4703 7.37096 12.7586C7.0841 13.0469 6.92307 13.437 6.92308 13.8437V18.8437C6.92308 19.0962 6.87334 19.3463 6.77669 19.5796C6.68005 19.813 6.5384 20.025 6.35982 20.2035C6.18125 20.3821 5.96925 20.5238 5.73593 20.6204C5.50261 20.717 5.25254 20.7668 5 20.7668H1.92308C1.41305 20.7668 0.923903 20.5642 0.563256 20.2035C0.202609 19.8429 0 19.3537 0 18.8437V8.87448C2.02392e-05 8.51215 0.0787988 8.15415 0.23088 7.82529C0.382961 7.49642 0.60471 7.20454 0.880769 6.96986L8.38077 0.595245Z" fill="currentColor"/>
</svg>
