<svg width="19" height="19" viewBox="0 0 19 19" fill="none" xmlns="http://www.w3.org/2000/svg">
<path d="M4.24991 0.000394812C4.80801 0.000394812 5.36065 0.110322 5.87627 0.3239C6.3919 0.537477 6.8604 0.850523 7.25504 1.24516C7.64968 1.6398 7.96273 2.10831 8.17631 2.62393C8.38988 3.13955 8.49981 3.69219 8.49981 4.2503V8.5002H4.24991C3.12276 8.5002 2.04178 8.05245 1.24477 7.25544C0.447758 6.45842 1.81715e-06 5.37744 1.81715e-06 4.2503C1.81715e-06 3.12315 0.447758 2.04217 1.24477 1.24516C2.04178 0.448151 3.12276 0.000394812 4.24991 0.000394812ZM4.24991 10.5002H8.49981V14.7501C8.49981 15.5906 8.25056 16.4123 7.78357 17.1112C7.31659 17.8101 6.65284 18.3548 5.87627 18.6765C5.09971 18.9981 4.24519 19.0823 3.42079 18.9183C2.59639 18.7543 1.83913 18.3496 1.24477 17.7552C0.65041 17.1608 0.245646 16.4036 0.0816626 15.5792C-0.0823209 14.7548 0.00184141 13.9003 0.323507 13.1237C0.645172 12.3471 1.18989 11.6834 1.88879 11.2164C2.58768 10.7494 3.40935 10.5002 4.24991 10.5002ZM10.4998 10.5002H14.7497C15.5902 10.5002 16.4119 10.7494 17.1108 11.2164C17.8097 11.6834 18.3544 12.3471 18.6761 13.1237C18.9977 13.9003 19.0819 14.7548 18.9179 15.5792C18.7539 16.4036 18.3492 17.1608 17.7548 17.7552C17.1604 18.3496 16.4032 18.7543 15.5788 18.9183C14.7544 19.0823 13.8999 18.9981 13.1233 18.6765C12.3467 18.3548 11.683 17.8101 11.216 17.1112C10.749 16.4123 10.4998 15.5906 10.4998 14.7501V10.5002ZM15.5077 7.57022L15.2457 8.17021C15.0537 8.6102 14.4457 8.6102 14.2537 8.17021L13.9917 7.57022C13.5324 6.50662 12.6911 5.65386 11.6337 5.18028L10.8268 4.82029C10.7292 4.77518 10.6466 4.70309 10.5887 4.61254C10.5308 4.52199 10.5001 4.41677 10.5001 4.3093C10.5001 4.20183 10.5308 4.0966 10.5887 4.00606C10.6466 3.91551 10.7292 3.84342 10.8268 3.79831L11.5887 3.45832C12.6729 2.9717 13.5291 2.08763 13.9807 0.988373L14.2497 0.339387C14.2895 0.239255 14.3584 0.153372 14.4475 0.092861C14.5367 0.0323503 14.6419 0 14.7497 0C14.8574 0 14.9627 0.0323503 15.0518 0.092861C15.141 0.153372 15.2099 0.239255 15.2497 0.339387L15.5187 0.989373C15.9702 2.08863 16.8264 2.9727 17.9106 3.45932L18.6726 3.79831C18.7701 3.84342 18.8527 3.91551 18.9106 4.00606C18.9685 4.0966 18.9993 4.20183 18.9993 4.3093C18.9993 4.41677 18.9685 4.52199 18.9106 4.61254C18.8527 4.70309 18.7701 4.77518 18.6726 4.82029L17.8656 5.18028C16.8083 5.65386 15.9669 6.50662 15.5077 7.57022Z" fill="currentColor"/>
</svg>
