<svg width="20" height="20" viewBox="0 0 20 20" fill="none" xmlns="http://www.w3.org/2000/svg">
<g clip-path="url(#clip0_49253_4285)">
<path d="M6.1111 9.16663L5.55554 10.8888H6.66665L6.1111 9.16663Z" fill="#0E233F"/>
<path d="M18.0645 1H7.74194V4.09278H10.3226V5.3299H1.93548C0.83871 5.3299 0 6.13402 0 7.18557V13.9897C0 15.0412 0.83871 15.8454 1.93548 15.8454H2.58065V19L6.64516 15.8454H10.9677V11.5155H18.0645C19.1613 11.5155 20 10.7113 20 9.65979V2.85567C20 1.80412 19.1613 1 18.0645 1ZM6.96774 13.3093L6.64516 12.3196H4.64516L4.25806 13.3093H2.70968L4.83871 7.80412H6.3871L8.51613 13.3093H6.96774ZM16.7742 8.42268V9.65979C15.9355 9.65979 15.0323 9.41237 14.2581 9.04124C13.4839 9.41237 12.5806 9.59794 11.6774 9.65979L11.6129 8.42268C12.0645 8.42268 12.5161 8.36083 12.9677 8.23711C12.3871 7.68041 12 7 11.8065 6.25773H13.1613C13.3548 6.81443 13.7419 7.24742 14.1935 7.61856C14.9032 7.06186 15.3548 6.25773 15.4194 5.3299H11.5484V4.09278H13.4839V2.85567H14.7742V4.09278H16.9032L16.9677 4.71134C17.0323 6.01031 16.5161 7.30928 15.5484 8.23711C16 8.36083 16.3871 8.42268 16.7742 8.42268Z" fill="#0E233F"/>
</g>
<defs>
<clipPath id="clip0_49253_4285">
<rect width="20" height="20" fill="white"/>
</clipPath>
</defs>
</svg>
