<svg width="204" height="80" viewBox="0 0 204 80" fill="none" xmlns="http://www.w3.org/2000/svg">
<path d="M40.1909 27.7231C36.141 26.0849 31.5453 27.5822 29.0273 31.2361C27.5894 33.323 26.8965 35.8565 27.055 38.3719C26.8165 38.4029 26.6156 38.2537 26.3699 38.152C24.9975 37.5841 23.5467 37.3512 22.0546 37.298C21.5868 37.4018 21.1639 37.2314 20.7049 37.2325L14.6151 37.2433L14.6063 57.988L23.8818 57.9477C25.1772 57.942 26.3601 57.5264 27.5114 57.0654C29.7584 56.0658 30.1023 53.6226 30.2659 51.4263C30.4404 49.0889 30.2298 47.5204 30.2029 45.3049C31.7317 46.5435 32.6177 47.2767 34.685 47.8291L34.686 72.9557C34.5952 73.0167 34.2916 73.0089 34.2905 73.1344L34.2549 76.5828C33.8527 76.6174 33.4753 76.5105 33.0674 76.6437L33.0297 79.7158C32.5764 79.6972 32.0926 79.7984 31.6692 79.534L31.6398 66.7915C29.6283 67.4029 27.7685 67.5851 25.8345 67.724C24.8008 67.7983 23.8601 67.6739 22.8084 67.8366L2.50564 67.8355C1.72963 67.8355 1.05946 67.8753 0.292746 67.834C0.1678 67.8273 0 67.7194 0 67.5237L0.00774508 0L24.8741 0.0485322C27.6534 0.0536953 30.2954 0.583943 32.9399 1.26134C37.0394 2.51287 40.494 4.95758 42.0511 9.06325C42.6594 10.6664 43.0388 12.3108 43.1328 14.0456C43.2273 15.784 43.2118 17.4909 43.1323 19.2278C42.9975 22.1826 42.3191 25.0218 40.3866 27.3121C40.2751 27.4448 40.1961 27.5847 40.1899 27.7221L40.1909 27.7231ZM28.7552 21.1841C28.7691 18.5989 28.9597 15.9487 28.3427 13.6217C27.9002 11.952 26.6714 10.6881 25.0244 10.2069C24.1007 9.90948 23.2132 9.7169 22.2239 9.7107L14.6094 9.66527V27.5517L21.277 27.5011C23.1621 27.4866 24.9304 27.0297 26.5366 26.0451C27.7458 25.1318 28.4816 23.763 28.6246 22.2487C28.6561 21.9141 28.7526 21.5801 28.7547 21.1841H28.7552Z" fill="#F2C94C"/>
<path d="M39.9461 79.6331C39.8692 78.8773 39.9203 77.3779 39.9017 76.5952L41.2766 76.4553L41.2787 73.042L40.4284 72.9811L40.4092 69.5425L38.7808 69.4882L38.7731 47.8432C42.934 46.7961 45.751 43.2011 46.3896 39.098L61.4121 15.1388L74.722 15.1434L72.0862 19.2971L56.1881 43.88L68.1581 66.9439L74.7633 79.6171L60.9572 79.6497L56.7256 71.252L51.6441 61.1891L50.1592 58.2354L48.0005 54.0306L43.7988 59.9041L43.7957 79.6125L39.9456 79.6321L39.9461 79.6331Z" fill="#F2C94C"/>
<path d="M40.1912 27.7229C44.6345 29.5201 47.0348 34.4395 46.3894 39.0987C45.7507 43.2023 42.9338 46.7968 38.7729 47.8439L38.7806 69.489L40.409 69.5432L40.4281 72.9818L41.2785 73.0427L41.2764 76.456L39.9015 76.5959C39.9201 77.3786 39.869 78.878 39.9459 79.6339C39.9547 79.7227 39.9681 79.9782 39.7972 79.9788L33.3909 79.9999C33.1668 80.0004 33.0522 79.8889 33.0295 79.7165L33.0672 76.6445C33.475 76.5112 33.8525 76.6181 34.2547 76.5835L34.2903 73.1351C34.2918 73.0091 34.5954 73.0169 34.6858 72.9565L34.6848 47.8299C32.6169 47.2775 31.7315 46.5443 30.2027 45.3057C28.4483 43.3664 27.221 41.0188 27.0548 38.3722C26.8885 35.7256 27.5897 33.3233 29.0271 31.2363C31.5451 27.5819 36.1402 26.0852 40.1906 27.7234L40.1912 27.7229ZM42.7035 41.1148L36.7613 30.8171L30.8403 41.1293L42.7035 41.1148Z" fill="#FFFFFF"/>
<path d="M137.348 49.0451L133.224 49.0634L128.056 35.1591L127.997 49.0669L124.335 49.0791L124.34 29.112L129.393 29.1077L133.663 40.6899L133.742 29.1251L137.338 29.1085L137.348 49.0451Z" fill="#FFFFFF"/>
<path d="M89.3067 38.3504C92.3498 39.7735 92.0839 42.3842 91.8946 45.123C91.6418 46.9489 90.3539 48.3292 88.5672 48.739C87.5741 49.0355 86.5635 49.0721 85.5101 49.0721L79.2294 49.0704L79.2372 29.1033L86.7195 29.1181C88.0144 29.1207 89.2787 29.521 90.2405 30.3109C91.3924 31.2945 91.5493 32.7298 91.5633 34.1781C91.5799 35.9168 91.068 37.4331 89.3067 38.3504ZM87.3883 33.3105C87.1032 31.5796 84.7358 32.0749 83.3442 32.0496L83.3285 37.066C84.1996 37.0678 85.0471 37.1541 85.926 37.0172C87.7136 36.7399 87.6342 34.8059 87.3883 33.3105ZM87.8775 44.4315C87.9281 43.5247 87.9507 42.6335 87.8269 41.7441C87.5252 39.5729 85.0419 40.063 83.3163 40.0891L83.3354 45.9958C84.9468 45.9348 87.7563 46.5888 87.8766 44.4315H87.8775Z" fill="#FFFFFF"/>
<path d="M106.985 49.045L102.96 49.0346C102.609 48.8061 102.521 48.0196 102.514 47.5688L102.437 42.8924C102.422 42.0004 101.806 41.2043 100.948 41.0378C100.099 40.8721 99.2873 40.8756 98.4057 40.9767L98.3953 49.0415C97.0411 49.1113 95.7227 49.134 94.3058 49.0354L94.3005 29.118L101.354 29.1015C102.342 29.0989 103.277 29.2663 104.15 29.67C105.579 30.2725 106.477 31.5656 106.588 33.1299C106.694 35.8077 106.87 37.8848 104.085 39.1831C107.338 40.6358 106.517 43.4627 106.616 46.3733C106.587 47.2549 106.699 47.9132 106.986 49.045H106.985ZM102.446 33.6087C102.257 31.6415 99.8872 31.9912 98.4049 32.0801L98.4319 37.9388C99.276 37.9571 100.049 37.9746 100.859 37.863C102.793 37.5979 102.606 35.2837 102.446 33.6087Z" fill="#FFFFFF"/>
<path d="M152.776 44.2031C152.776 45.9775 151.932 47.4755 150.512 48.2856C149.356 48.8271 148.142 49.059 146.858 49.0573L140.143 49.0486L140.118 29.0963L146.995 29.0911C148.406 29.0902 149.729 29.3745 150.912 30.12C152.099 30.9693 152.77 32.3226 152.771 33.838L152.776 44.2031ZM148.666 44.1734L148.66 33.7343C148.66 31.6014 145.664 31.9947 144.207 32.0924V45.9827C145.669 45.9775 148.667 46.5408 148.666 44.1734Z" fill="#FFFFFF"/>
<path d="M174.722 48.9953L170.483 49.0956L166.506 41.0822C166.117 41.7223 165.364 42.2777 165.256 42.957L165.158 49.0328C163.858 49.1095 162.548 49.1156 161.116 49.0537L161.103 29.1302L165.147 29.1119L165.262 37.4723L170.528 29.1145L174.621 29.1285L169.124 37.7173L174.722 48.9953Z" fill="#FFFFFF"/>
<path d="M117.708 45.3576L112.686 45.3358L111.867 49.0477L108.078 49.0381L112.446 29.1277L118.271 29.1138L122.656 49.0399L118.508 49.0652L117.707 45.3576H117.708ZM117.123 42.3641L115.191 33.0821L113.287 42.4627C114.677 42.4583 115.862 42.5734 117.124 42.3633L117.123 42.3641Z" fill="#FFFFFF"/>
<path d="M186.185 40.2915L180.49 40.3665L180.528 46.0229L187.656 46.0578L187.641 49.0608L176.429 49.1L176.415 29.1016L187.596 29.1042C187.716 30.0843 187.651 30.9493 187.639 31.9869L180.503 32.054L180.516 37.3303L186.166 37.3809L186.185 40.2923L186.185 40.2915Z" fill="#FFFFFF"/>
<path d="M203.266 29.139L198.132 42.3554L198.106 49.0468L194.013 49.0721L193.952 42.2813L188.808 29.1233L193.026 29.085L196.183 37.8918L199.326 29.1251L203.266 29.139Z" fill="#FFFFFF"/>
<path d="M89.7235 63.6094C88.9143 65.9227 86.9559 67.344 84.5876 67.3467L79.137 67.3519L79.123 54.7529C82.7966 54.9064 86.9751 53.8216 89.2291 57.4298C90.204 59.3324 90.3452 61.4862 89.7235 63.6094ZM87.6378 63.9076C88.542 62.1131 88.4897 60.0745 87.6761 58.3602C86.4005 55.6693 83.3285 56.216 80.8635 56.2649L80.8827 65.8905C83.1803 65.8155 86.3882 66.3849 87.6369 63.9076H87.6378Z" fill="#FFFFFF"/>
<path d="M96.2998 68.23C96.8055 68.0957 97.5554 67.9998 97.9129 68.2352C98.4291 70.219 101.539 70.1143 102.531 69.1543C103.358 68.3538 103.498 67.1287 103.241 65.9769C102.109 67.2403 100.687 67.5987 99.0857 67.2107C97.7516 66.8872 96.5666 65.8644 96.1376 64.3315C95.6737 62.673 95.8359 60.759 96.945 59.3813C98.4387 57.5267 101.834 57.245 103.23 59.315C103.451 58.9218 103.344 58.634 103.389 58.2242C103.898 58.0934 104.431 58.0734 105.011 58.2181L104.968 67.2866C104.963 68.4794 104.449 69.7551 103.441 70.3864C101.328 71.71 96.6242 71.4833 96.2989 68.23H96.2998ZM103.16 61.2866C102.752 59.928 101.563 59.1694 100.235 59.2732C98.9366 59.3743 97.8946 60.3274 97.6853 61.7287C97.5258 62.7968 97.5999 63.9173 98.2294 64.8206C98.8904 65.7711 100.023 66.0989 101.186 65.8495C103.096 65.4397 103.729 63.1848 103.16 61.2866Z" fill="#FFFFFF"/>
<path d="M123.501 66.2959C122.501 67.4826 121.2 67.7207 119.822 67.6169C118.362 67.5071 117.259 66.6133 117.111 65.2626C116.951 63.8012 117.837 62.665 119.325 62.2761C121.664 61.6649 123.716 62.2605 123.467 60.4503C123.284 59.124 121.556 59.0508 120.418 59.2862C119.632 59.4484 119.179 60.037 119.099 60.8479C118.567 60.9839 118.041 60.9421 117.494 60.8679C117.435 59.6803 118.209 58.6008 119.397 58.1884C120.632 57.7603 121.998 57.7515 123.232 58.1309C124.419 58.4945 125.178 59.4257 125.192 60.6621L125.256 65.8329C125.26 66.1529 125.944 65.9733 126.075 66.105C126.355 66.3857 126.176 66.9551 126.168 67.3484C125.677 67.4757 125.212 67.4957 124.708 67.426C124.1 67.3527 123.876 67.0397 123.501 66.2959ZM123.353 64.7918C123.635 64.123 123.484 63.4394 123.453 62.7305C121.857 63.3356 118.702 62.788 118.866 64.9452C118.929 65.7649 119.584 66.2872 120.522 66.3177C121.635 66.3535 122.87 65.9349 123.353 64.7926V64.7918Z" fill="#FFFFFF"/>
<path d="M179.496 66.2594C180.709 66.2751 181.637 65.6568 181.983 64.5791C182.549 64.4117 183.118 64.4779 183.68 64.5355C183.303 66.4747 181.66 67.5429 179.754 67.6431C177.478 67.7626 175.539 66.466 175.039 64.2102C174.701 62.6843 174.784 61.0563 175.711 59.7126C177.274 57.4473 180.712 57.1927 182.611 59.1738C183.652 60.2594 183.888 61.7565 183.814 63.1813L176.581 63.2179C176.6 64.9052 177.758 66.2367 179.496 66.2585V66.2594ZM182.068 61.8873C181.958 60.0431 180.674 59.1101 179.143 59.2139C177.772 59.3063 176.65 60.3387 176.629 61.9187L182.067 61.8873H182.068Z" fill="#FFFFFF"/>
<path d="M141.018 67.1427C139.556 67.8403 137.833 67.7854 136.37 67.2587C135.184 66.8315 134.507 65.7467 134.464 64.4632C135.009 64.4056 135.516 64.3969 136.098 64.4588C136.226 65.295 136.672 65.9726 137.523 66.1897C138.336 66.3972 139.209 66.3981 139.977 66.0633C140.535 65.82 140.798 65.3003 140.776 64.7675C140.753 64.1824 140.279 63.7508 139.637 63.6069L136.695 62.9469C135.626 62.7071 134.862 62.0086 134.734 61.0399C134.605 60.0711 134.952 59.0091 135.919 58.4632C137.326 57.6697 139.16 57.6593 140.634 58.335C141.644 58.798 142.209 59.8095 142.189 60.8027C141.571 60.8655 141.128 60.8951 140.614 60.787C140.495 60.0092 140.039 59.4477 139.27 59.2785C138.131 59.0274 136.265 59.2454 136.385 60.562C136.423 60.9814 136.77 61.4262 137.275 61.5474L140.357 62.2833C141.475 62.5501 142.315 63.2843 142.462 64.2566C142.642 65.4555 142.217 66.5707 141.018 67.1427Z" fill="#FFFFFF"/>
<path d="M193.023 65.4815C192.562 67.6641 189.265 67.9344 187.288 67.3746C185.955 66.997 185.037 65.8199 185.101 64.4858C185.653 64.3986 186.187 64.3663 186.718 64.4762C186.844 65.0595 186.999 65.6638 187.548 65.9568C188.462 66.4442 189.566 66.4477 190.521 66.0841C191.103 65.8626 191.417 65.3124 191.38 64.7883C191.341 64.2277 190.895 63.7751 190.303 63.64L187.229 62.9398C186.187 62.7026 185.445 61.9815 185.333 61.0842C185.196 59.9777 185.545 58.9811 186.568 58.4361C187.921 57.7158 189.638 57.6592 191.066 58.253C192.086 58.6776 192.769 59.5505 192.831 60.7407C192.328 60.9316 191.747 60.8924 191.211 60.7485C190.947 58.8973 188.49 58.9976 187.639 59.458C187.185 59.7039 186.964 60.1129 186.987 60.5715C187.073 62.2405 190.735 61.5813 192.405 63.0052C193.113 63.6086 193.216 64.5634 193.022 65.4815H193.023Z" fill="#FFFFFF"/>
<path d="M200.716 67.2274C199.292 67.768 197.781 67.7776 196.399 67.3172C195.129 66.8934 194.286 65.7747 194.338 64.4772C194.896 64.3848 195.421 64.3865 195.995 64.458C196.042 65.2323 196.406 65.8785 197.159 66.1287C198.012 66.413 198.952 66.4156 199.792 66.1104C200.4 65.8898 200.697 65.337 200.657 64.7658C200.617 64.199 200.164 63.7639 199.543 63.627L196.58 62.9713C195.5 62.7324 194.736 62.0043 194.594 61.0661C194.423 59.9229 194.858 58.9228 195.925 58.39C197.187 57.7596 198.706 57.702 200.057 58.1415C201.262 58.533 202.113 59.555 202.059 60.7966C201.49 60.8864 201.029 60.8812 200.512 60.7966C200.391 60.0912 200.007 59.5428 199.317 59.3344C198.544 59.1007 197.732 59.1137 196.983 59.3989C196.449 59.6012 196.194 60.0581 196.228 60.5699C196.361 62.6269 202.051 61.1943 202.364 64.4293C202.483 65.6509 201.97 66.753 200.716 67.2282V67.2274Z" fill="#FFFFFF"/>
<path d="M152.585 58.1886L152.589 67.3163C152.05 67.4026 151.516 67.4227 150.995 67.3277C150.923 66.8115 151.036 66.4801 150.858 66.0206C150.067 67.2466 148.875 67.7078 147.519 67.6311C145.654 67.5256 144.375 66.1993 144.369 64.3124L144.349 58.1921C144.914 58.0848 145.44 58.1075 146.01 58.1921L146.038 63.9784C146.042 64.7475 146.327 65.5087 147.002 65.8907C147.825 66.3563 148.816 66.2726 149.591 65.813C150.365 65.3535 150.897 64.4702 150.902 63.4518L150.93 58.2235C151.426 58.084 151.952 58.0988 152.586 58.1877L152.585 58.1886Z" fill="#FFFFFF"/>
<path d="M166.93 64.8084C167.498 65.9559 168.587 66.3561 169.7 66.2445C170.746 66.1399 171.598 65.3874 171.821 64.1919C172.37 64.0847 172.894 64.089 173.501 64.1814C173.384 66.3029 171.542 67.6074 169.482 67.6571C167.347 67.7085 165.547 66.575 164.977 64.4797C164.686 63.408 164.662 62.2544 164.941 61.1767C165.486 59.0691 167.305 57.803 169.464 57.8527C171.48 57.8989 173.227 59.1232 173.515 61.2386C172.964 61.3702 172.419 61.3101 171.835 61.2412C171.542 60.1137 170.721 59.363 169.693 59.2601C168.583 59.1485 167.507 59.581 166.949 60.6282C166.29 61.8655 166.277 63.4865 166.93 64.8066V64.8084Z" fill="#FFFFFF"/>
<path d="M159.264 66.2454C160.575 66.2297 161.477 65.4214 161.694 64.205C162.246 64.0777 162.766 64.1048 163.384 64.2015C163.207 66.3108 161.429 67.597 159.372 67.6484C157.201 67.7025 155.369 66.5288 154.818 64.3855C154.548 63.3348 154.56 62.1829 154.827 61.1261C155.349 59.0613 157.102 57.8737 159.196 57.8589C161.261 57.8449 163.052 59.057 163.331 61.2421C162.828 61.3101 162.294 61.3502 161.706 61.256C161.431 60.0929 160.602 59.3683 159.583 59.2601C158.455 59.1407 157.371 59.5627 156.821 60.6117C156.192 61.8115 156.181 63.2755 156.661 64.5399C157.067 65.6115 158.058 66.2602 159.264 66.2454H159.264Z" fill="#FFFFFF"/>
<path d="M113.965 65.1302C114.032 67.0092 116.628 64.8093 115.96 67.3947C115.245 67.474 114.614 67.4984 113.933 67.3964C112.892 67.2403 112.281 66.4224 112.276 65.3708L112.246 59.5531C111.758 59.3429 111.316 59.5435 110.802 59.4127C110.754 59.043 110.587 58.403 110.853 58.1911C111.126 57.974 111.885 58.3341 112.147 58.0176C112.444 57.2398 112.156 56.4132 112.288 55.5726C112.814 55.4104 113.414 55.4244 113.947 55.5752L113.972 58.0647C114.613 58.2277 115.221 58.0725 115.893 58.1684C116.045 58.566 116.031 58.9854 115.933 59.4336C115.258 59.5043 114.67 59.3857 113.966 59.5313C113.907 61.4173 113.898 63.252 113.965 65.1293V65.1302Z" fill="#FFFFFF"/>
<path d="M129.486 54.6387H127.796V67.4033H129.486V54.6387Z" fill="#FFFFFF"/>
<path d="M93.8765 58.1353H92.1884V67.3728H93.8765V58.1353Z" fill="#FFFFFF"/>
<path d="M109.244 58.1484H107.538V67.3651H109.244V58.1484Z" fill="#FFFFFF"/>
<path d="M109.305 55.0855L107.517 55.0927L107.524 56.9665L109.313 56.9593L109.305 55.0855Z" fill="#FFFFFF"/>
<path d="M93.9418 55.0895H92.1726V56.918H93.9418V55.0895Z" fill="#FFFFFF"/>
</svg>
