<svg width="56" height="48" viewBox="0 0 56 48" fill="none" xmlns="http://www.w3.org/2000/svg">
<rect x="0.5" y="0.5" width="55" height="47" rx="7.5" fill="white"/>
<rect x="0.5" y="0.5" width="55" height="47" rx="7.5" stroke="#F2C94C"/>
<path d="M25.3333 14.6666C24.9797 14.6666 24.6406 14.8071 24.3905 15.0572C24.1405 15.3072 24 15.6463 24 16C24 16.3536 24.1405 16.6927 24.3905 16.9428C24.6406 17.1928 24.9797 17.3333 25.3333 17.3333H41.3333C41.687 17.3333 42.0261 17.1928 42.2761 16.9428C42.5262 16.6927 42.6667 16.3536 42.6667 16C42.6667 15.6463 42.5262 15.3072 42.2761 15.0572C42.0261 14.8071 41.687 14.6666 41.3333 14.6666H25.3333ZM18.6667 24C18.6667 23.6463 18.8071 23.3072 19.0572 23.0571C19.3072 22.8071 19.6464 22.6666 20 22.6666H36C36.3536 22.6666 36.6928 22.8071 36.9428 23.0571C37.1929 23.3072 37.3333 23.6463 37.3333 24C37.3333 24.3536 37.1929 24.6927 36.9428 24.9428C36.6928 25.1928 36.3536 25.3333 36 25.3333H20C19.6464 25.3333 19.3072 25.1928 19.0572 24.9428C18.8071 24.6927 18.6667 24.3536 18.6667 24ZM13.3333 32C13.3333 31.6463 13.4738 31.3072 13.7239 31.0571C13.9739 30.8071 14.313 30.6666 14.6667 30.6666H30.6667C31.0203 30.6666 31.3594 30.8071 31.6095 31.0571C31.8595 31.3072 32 31.6463 32 32C32 32.3536 31.8595 32.6927 31.6095 32.9428C31.3594 33.1928 31.0203 33.3333 30.6667 33.3333H14.6667C14.313 33.3333 13.9739 33.1928 13.7239 32.9428C13.4738 32.6927 13.3333 32.3536 13.3333 32Z" fill="#F2C94C"/>
</svg>
