<svg width="21" height="18" viewBox="0 0 21 18" fill="none" xmlns="http://www.w3.org/2000/svg">
<path d="M6.3 7.8C7.33434 7.8 8.32632 7.38911 9.05772 6.65772C9.78911 5.92632 10.2 4.93434 10.2 3.9C10.2 2.86566 9.78911 1.87368 9.05772 1.14228C8.32632 0.410892 7.33434 0 6.3 0C5.26566 0 4.27368 0.410892 3.54228 1.14228C2.81089 1.87368 2.4 2.86566 2.4 3.9C2.4 4.93434 2.81089 5.92632 3.54228 6.65772C4.27368 7.38911 5.26566 7.8 6.3 7.8ZM9 12C8.99997 11.3709 9.19774 10.7576 9.56534 10.247C9.93293 9.73646 10.4517 9.35436 11.0484 9.1548C10.7773 9.0524 10.4898 8.99995 10.2 9H2.4C1.76348 9 1.15303 9.25286 0.702944 9.70294C0.252856 10.153 0 10.7635 0 11.4C0 11.4 0 16.2 6.3 16.2C7.3764 16.2 8.268 16.0596 9.0084 15.828C9.00319 15.7521 9.00039 15.6761 9 15.6V12ZM18.6 4.8C18.6 5.59565 18.2839 6.35871 17.7213 6.92132C17.1587 7.48393 16.3957 7.8 15.6 7.8C14.8044 7.8 14.0413 7.48393 13.4787 6.92132C12.9161 6.35871 12.6 5.59565 12.6 4.8C12.6 4.00435 12.9161 3.24129 13.4787 2.67868C14.0413 2.11607 14.8044 1.8 15.6 1.8C16.3957 1.8 17.1587 2.11607 17.7213 2.67868C18.2839 3.24129 18.6 4.00435 18.6 4.8ZM10.2 12C10.2 11.5226 10.3896 11.0648 10.7272 10.7272C11.0648 10.3896 11.5226 10.2 12 10.2H19.2C19.6774 10.2 20.1352 10.3896 20.4728 10.7272C20.8104 11.0648 21 11.5226 21 12V15.6C21 16.0774 20.8104 16.5352 20.4728 16.8728C20.1352 17.2104 19.6774 17.4 19.2 17.4H12C11.5226 17.4 11.0648 17.2104 10.7272 16.8728C10.3896 16.5352 10.2 16.0774 10.2 15.6V12ZM11.4 12V13.2C11.8774 13.2 12.3352 13.0104 12.6728 12.6728C13.0104 12.3352 13.2 11.8774 13.2 11.4H12C12 11.5591 11.9368 11.7117 11.8243 11.8243C11.7117 11.9368 11.5591 12 11.4 12ZM19.8 13.2V12C19.6409 12 19.4883 11.9368 19.3757 11.8243C19.2632 11.7117 19.2 11.5591 19.2 11.4H18C18 11.8774 18.1896 12.3352 18.5272 12.6728C18.8648 13.0104 19.3226 13.2 19.8 13.2ZM18 16.2H19.2C19.2 16.0409 19.2632 15.8883 19.3757 15.7757C19.4883 15.6632 19.6409 15.6 19.8 15.6V14.4C19.3226 14.4 18.8648 14.5896 18.5272 14.9272C18.1896 15.2648 18 15.7226 18 16.2ZM11.4 14.4V15.6C11.5591 15.6 11.7117 15.6632 11.8243 15.7757C11.9368 15.8883 12 16.0409 12 16.2H13.2C13.2 15.7226 13.0104 15.2648 12.6728 14.9272C12.3352 14.5896 11.8774 14.4 11.4 14.4ZM15.6 15.6C16.0774 15.6 16.5352 15.4104 16.8728 15.0728C17.2104 14.7352 17.4 14.2774 17.4 13.8C17.4 13.3226 17.2104 12.8648 16.8728 12.5272C16.5352 12.1896 16.0774 12 15.6 12C15.1226 12 14.6648 12.1896 14.3272 12.5272C13.9896 12.8648 13.8 13.3226 13.8 13.8C13.8 14.2774 13.9896 14.7352 14.3272 15.0728C14.6648 15.4104 15.1226 15.6 15.6 15.6Z" fill="currentColor"/>
</svg>
