<svg width="88" height="88" viewBox="0 0 88 88" fill="none" xmlns="http://www.w3.org/2000/svg">
<rect x="1" y="1" width="86" height="86" rx="43" stroke="#F2C94C" stroke-width="2"/>
<path fill-rule="evenodd" clip-rule="evenodd" d="M44.0035 22C41.1999 21.9978 38.4709 22.9161 36.2238 24.6178C33.9767 26.3194 32.3321 28.7132 31.5355 31.4417C30.7389 34.1701 30.8331 37.087 31.8041 39.7566C32.775 42.4263 34.5705 44.7056 36.9226 46.2542L33.4795 60.4531C32.9661 62.5626 34.0814 64.8302 36.3473 65.2723C41.3234 66.2426 46.6836 66.2426 51.6597 65.2723C53.9256 64.8302 55.0408 62.5626 54.5274 60.4531L51.0844 46.2524C53.4344 44.7027 55.2279 42.4234 56.1975 39.7545C57.167 37.0856 57.2606 34.17 56.4643 31.4427C55.6681 28.7154 54.0245 26.3224 51.7789 24.6207C49.5333 22.919 46.8059 21.9997 44.0035 22Z" fill="#F2C94C"/>
</svg>
