<svg width="389" height="589" viewBox="0 0 389 589" fill="none" xmlns="http://www.w3.org/2000/svg">
<mask id="path-1-inside-1_49253_4768" fill="white">
<path d="M123.99 85C123.99 107.091 106.082 125 83.9902 125H40C17.9086 125 0 142.909 0 165V549C0 571.091 17.9086 589 40 589H349C371.091 589 389 571.091 389 549V40C389 17.9086 371.091 0 349 0H163.99C141.899 0 123.99 17.9086 123.99 40V85Z"/>
</mask>
<path d="M123.99 85C123.99 107.091 106.082 125 83.9902 125H40C17.9086 125 0 142.909 0 165V549C0 571.091 17.9086 589 40 589H349C371.091 589 389 571.091 389 549V40C389 17.9086 371.091 0 349 0H163.99C141.899 0 123.99 17.9086 123.99 40V85Z" fill="white"/>
<path d="M83.9902 125V126V126V125ZM123.99 85H124.99C124.99 107.644 106.634 126 83.9902 126V125V124C105.529 124 122.99 106.539 122.99 85H123.99ZM83.9902 125V126H40V125V124H83.9902V125ZM0 165H1V549H0H-1V165H0ZM40 589V588H349V589V590H40V589ZM389 549H388V40H389H390V549H389ZM349 0V1H163.99V0V-1H349V0ZM123.99 40H124.99V85H123.99H122.99V40H123.99ZM163.99 0V1C142.451 1 124.99 18.4609 124.99 40H123.99H122.99C122.99 17.3563 141.347 -1 163.99 -1V0ZM389 40H388C388 18.4609 370.539 1 349 1V0V-1C371.644 -1 390 17.3563 390 40H389ZM349 589V588C370.539 588 388 570.539 388 549H389H390C390 571.644 371.644 590 349 590V589ZM0 549H1C1 570.539 18.4609 588 40 588V589V590C17.3563 590 -1 571.644 -1 549H0ZM40 125V126C18.4609 126 1 143.461 1 165H0H-1C-1 142.356 17.3563 124 40 124V125Z" fill="#F2C94C" mask="url(#path-1-inside-1_49253_4768)"/>
</svg>
