<svg width="44" height="44" viewBox="0 0 44 44" fill="none" xmlns="http://www.w3.org/2000/svg">
<path d="M11.501 7.0293H11.503C13.2235 7.02917 14.8996 7.59081 16.2813 8.63281C17.6634 9.67511 18.6773 11.1433 19.169 12.8193C19.6607 14.4955 19.6035 16.2879 19.0049 17.9277C18.4064 19.5672 17.3 20.9643 15.8546 21.9131L14.9688 22.4941L15.2198 23.5225L17.7354 33.8506L17.7364 33.8516C17.9472 34.7139 17.4726 35.399 16.8116 35.5273C13.364 36.1964 9.641 36.1964 6.19342 35.5273C5.53251 35.3989 5.05789 34.7138 5.26862 33.8516L5.26959 33.8506L7.78522 23.5234L8.03619 22.4941L7.15045 21.9141C5.70354 20.966 4.59555 19.5688 3.99615 17.9287C3.39672 16.2884 3.33922 14.4952 3.83112 12.8184C4.32296 11.1417 5.33696 9.6731 6.71979 8.63086C8.10236 7.58888 9.77987 7.02804 11.501 7.0293Z" stroke="#F2C94C" stroke-width="3"/>
<path d="M33.501 7.0293H33.503C35.2235 7.02917 36.8996 7.59081 38.2813 8.63281C39.6634 9.67511 40.6773 11.1433 41.169 12.8193C41.6607 14.4955 41.6035 16.2879 41.0049 17.9277C40.4064 19.5672 39.3 20.9643 37.8546 21.9131L36.9688 22.4941L37.2198 23.5225L39.7354 33.8506L39.7364 33.8516C39.9472 34.7139 39.4726 35.399 38.8116 35.5273C35.364 36.1964 31.641 36.1964 28.1934 35.5273C27.5325 35.3989 27.0579 34.7138 27.2686 33.8516L27.2696 33.8506L29.7852 23.5234L30.0362 22.4941L29.1505 21.9141C27.7035 20.966 26.5955 19.5688 25.9962 17.9287C25.3967 16.2884 25.3392 14.4952 25.8311 12.8184C26.323 11.1417 27.337 9.6731 28.7198 8.63086C30.1024 7.58888 31.7799 7.02804 33.501 7.0293Z" stroke="#F2C94C" stroke-width="3"/>
</svg>
